<svg width="30" height="31" viewBox="0 0 30 31" fill="none" xmlns="http://www.w3.org/2000/svg">
<g filter="url(#filter0_d_190_1359)">
<path d="M12 15C12 12.1716 12 10.7574 12.8787 9.87868C13.7574 9 15.1716 9 18 9H19C21.8284 9 23.2426 9 24.1213 9.87868C25 10.7574 25 12.1716 25 15V16C25 18.8284 25 20.2426 24.1213 21.1213C23.2426 22 21.8284 22 19 22H18C15.1716 22 13.7574 22 12.8787 21.1213C12 20.2426 12 18.8284 12 16V15Z" stroke="#1876D2" stroke-width="1.5" stroke-linecap="round" stroke-linejoin="round"/>
<path d="M19.9999 9C19.9975 6.04291 19.9528 4.51121 19.092 3.46243C18.9258 3.25989 18.7401 3.07418 18.5376 2.90796C17.4312 2 15.7875 2 12.5 2C9.21252 2 7.56878 2 6.46243 2.90796C6.25989 3.07417 6.07418 3.25989 5.90796 3.46243C5 4.56878 5 6.21252 5 9.5C5 12.7875 5 14.4312 5.90796 15.5376C6.07417 15.7401 6.25989 15.9258 6.46243 16.092C7.51121 16.9528 9.04291 16.9975 12 16.9999" stroke="#1876D2" stroke-width="1.5" stroke-linecap="round" stroke-linejoin="round"/>
</g>
<defs>
<filter id="filter0_d_190_1359" x="-1" y="0" width="32" height="32" filterUnits="userSpaceOnUse" color-interpolation-filters="sRGB">
<feFlood flood-opacity="0" result="BackgroundImageFix"/>
<feColorMatrix in="SourceAlpha" type="matrix" values="0 0 0 0 0 0 0 0 0 0 0 0 0 0 0 0 0 0 127 0" result="hardAlpha"/>
<feOffset dy="4"/>
<feGaussianBlur stdDeviation="2"/>
<feComposite in2="hardAlpha" operator="out"/>
<feColorMatrix type="matrix" values="0 0 0 0 0 0 0 0 0 0 0 0 0 0 0 0 0 0 0.25 0"/>
<feBlend mode="normal" in2="BackgroundImageFix" result="effect1_dropShadow_190_1359"/>
<feBlend mode="normal" in="SourceGraphic" in2="effect1_dropShadow_190_1359" result="shape"/>
</filter>
</defs>
</svg>
