<svg width="17" height="16" viewBox="0 0 17 16" fill="none" xmlns="http://www.w3.org/2000/svg">
<g opacity="0.7">
<path d="M7.90025 2.00137C5.46767 2.00575 4.19383 2.06547 3.37975 2.87953C2.50122 3.75803 2.50122 5.17196 2.50122 7.99979C2.50122 10.8277 2.50122 12.2416 3.37975 13.1201C4.25827 13.9986 5.67225 13.9986 8.50019 13.9986C11.3281 13.9986 12.7421 13.9986 13.6207 13.1201C14.4347 12.3061 14.4944 11.0323 14.4988 8.59972" stroke="#1876D2" stroke-width="1.5" stroke-linecap="round" stroke-linejoin="round"/>
<path d="M14.1539 2.34478L10.4543 6.0341M14.1539 2.34478C13.8245 2.0151 11.6061 2.04583 11.1371 2.0525M14.1539 2.34478C14.4831 2.67445 14.4525 4.89529 14.4458 5.3648" stroke="#1876D2" stroke-width="1.5" stroke-linecap="round" stroke-linejoin="round"/>
</g>
</svg>
