<svg width="25" height="24" viewBox="0 0 25 24" fill="none" xmlns="http://www.w3.org/2000/svg">
<path d="M5.43945 1.87891L5.59082 1.90137C5.94068 1.97367 6.24507 2.19093 6.46484 2.51172L6.55371 2.65625L7.44727 4.25879C7.69762 4.70789 7.90673 5.0842 8.06641 5.41309L8.20898 5.72656C8.36089 6.08928 8.44501 6.41327 8.43652 6.74707L8.42676 6.89062C8.39658 7.17997 8.30035 7.44265 8.14648 7.71191L7.97363 7.98438C7.85032 8.16293 7.70054 8.35379 7.52539 8.56445L6.9248 9.26465L5.6123 10.7725C5.50267 10.8984 5.39059 11.0261 5.30957 11.1455C5.24263 11.2442 5.18076 11.3599 5.14844 11.498L5.12695 11.6436C5.11416 11.8453 5.17011 12.0137 5.24121 12.1553C5.2732 12.2189 5.313 12.2855 5.35547 12.3525L5.48828 12.5547C7.06334 14.9112 9.15001 17.0471 11.4775 18.6904L11.9463 19.0127C12.08 19.1021 12.2176 19.1949 12.3447 19.2588C12.451 19.3122 12.5726 19.3582 12.7119 19.3721L12.8574 19.374C13.0621 19.361 13.224 19.2806 13.3555 19.1914C13.4151 19.1509 13.4766 19.1026 13.5391 19.0508L13.7285 18.8887L15.2363 17.5762C15.6242 17.2385 15.9494 16.9556 16.2383 16.7314L16.5156 16.5273C16.8392 16.3038 17.1394 16.1552 17.4678 16.0947L17.6104 16.0742C17.8997 16.0441 18.1765 16.0837 18.4717 16.1787L18.7744 16.291C18.9744 16.3748 19.1915 16.4825 19.4336 16.6104L20.2422 17.0537L21.8447 17.9473C22.1943 18.1422 22.4466 18.4266 22.5596 18.7627L22.5996 18.9102C22.6721 19.2617 22.5927 19.6317 22.3662 19.9707L22.2598 20.1143C20.9929 21.6683 19.0151 22.6424 16.9541 22.3105L16.7549 22.2744C15.5351 22.0283 14.3297 21.64 12.9238 20.9023L12.3086 20.5645C9.13199 18.7426 6.25851 15.9526 4.3125 12.8223L3.93652 12.1924C3.09505 10.7251 2.63174 9.48849 2.34082 8.26855L2.22656 7.74609C1.82331 5.74707 2.66509 3.80721 4.09375 2.49512L4.38672 2.24121C4.71599 1.97284 5.08352 1.84965 5.43945 1.87891Z" stroke="#1876D2"/>
</svg>
