<svg width="16" height="16" viewBox="0 0 16 16" fill="none" xmlns="http://www.w3.org/2000/svg">
<path d="M14.8511 3.16522C15.0631 2.89576 15.4623 2.83925 15.7436 3.04217C16.0252 3.2454 16.0846 3.62877 15.8726 3.89862L8.72021 12.6594C8.60207 12.8126 8.41824 12.9031 8.22021 12.9064H8.20653C8.01191 12.9064 7.8272 12.8225 7.70556 12.676L6.8872 12.1105L7.70556 11.1154L8.19579 11.5051L14.8511 3.16522ZM10.5581 2.64569C10.7701 2.37584 11.1701 2.31845 11.4517 2.52167C11.7331 2.7249 11.7916 3.10829 11.5796 3.37811L4.42724 12.5598C4.30913 12.7129 4.1252 12.8024 3.92724 12.8058H3.91259C3.71814 12.8057 3.53413 12.7228 3.41259 12.5764L0.139152 8.63202C-0.0798007 8.36883 -0.0348217 7.98253 0.239738 7.77264C0.514296 7.56278 0.917277 7.60614 1.13622 7.86932L3.89599 11.1935L10.5581 2.64569Z" fill="white"/>
</svg>
